<?xml version="1.0" encoding="UTF-8" standalone="no"?>
<svg
   width="252"
   zoomAndPan="magnify"
   viewBox="0 0 189 41.24999"
   height="55"
   preserveAspectRatio="xMidYMid"
   version="1.0"
   id="svg205"
   xmlns="http://www.w3.org/2000/svg"
   xmlns:svg="http://www.w3.org/2000/svg">
  <defs
     id="defs43">
    <g
       id="g2" />
    <clipPath
       id="ca563ed51b">
      <path
         d="M 170.95312,178 H 174 v 4 h -3.04688 z m 0,0"
         clip-rule="nonzero"
         id="path4" />
    </clipPath>
    <clipPath
       id="0553059a20">
      <path
         d="M 170.95312,171.70312 H 177 V 178 h -6.04688 z m 0,0"
         clip-rule="nonzero"
         id="path7" />
    </clipPath>
    <clipPath
       id="18d70cbce9">
      <path
         d="M 170.95312,182 H 177 v 6.20312 h -6.04688 z m 0,0"
         clip-rule="nonzero"
         id="path10" />
    </clipPath>
    <clipPath
       id="4d7a6e8203">
      <path
         d="m 177,185 h 2 v 3.20312 h -2 z m 0,0"
         clip-rule="nonzero"
         id="path13" />
    </clipPath>
    <clipPath
       id="99252efac0">
      <path
         d="m 177,171.70312 h 5 V 175 h -5 z m 0,0"
         clip-rule="nonzero"
         id="path16" />
    </clipPath>
    <clipPath
       id="c5649088d5">
      <path
         d="m 180,187 h 2 v 1.20312 h -2 z m 0,0"
         clip-rule="nonzero"
         id="path19" />
    </clipPath>
    <clipPath
       id="bb04a9a39b">
      <path
         d="m 181,186 h 2 v 2.20312 h -2 z m 0,0"
         clip-rule="nonzero"
         id="path22" />
    </clipPath>
    <clipPath
       id="c0ef5c6a0e">
      <path
         d="m 183,187 h 2 v 1.20312 h -2 z m 0,0"
         clip-rule="nonzero"
         id="path25" />
    </clipPath>
    <clipPath
       id="4f501d04fe">
      <path
         d="m 185,186 h 2.45312 v 2.20312 H 185 Z m 0,0"
         clip-rule="nonzero"
         id="path28" />
    </clipPath>
    <clipPath
       id="dd796dd677">
      <path
         d="m 183,178 h 4.45312 v 3 H 183 Z m 0,0"
         clip-rule="nonzero"
         id="path31" />
    </clipPath>
    <clipPath
       id="003e179a7e">
      <path
         d="m 185,181 h 2.45312 v 5 H 185 Z m 0,0"
         clip-rule="nonzero"
         id="path34" />
    </clipPath>
    <clipPath
       id="6b13cc56e9">
      <path
         d="m 181,171.70312 h 6.45312 V 178 H 181 Z m 0,0"
         clip-rule="nonzero"
         id="path37" />
    </clipPath>
    <clipPath
       id="6c330f9ec3">
      <path
         d="m 186,185 h 1.45312 v 2 H 186 Z m 0,0"
         clip-rule="nonzero"
         id="path40" />
    </clipPath>
  </defs>
  <g
     clip-path="url(#ca563ed51b)"
     id="g47"
     style="fill:#ffffff"
     transform="translate(-106.46187,-158.8983)">
    <path
       fill="#efeceb"
       d="m 171.74219,181.15234 h 0.78515 v -2.36328 h 0.78907 v -0.78515 h -2.36329 v 1.57421 h 0.78907 v 0.78516 h -0.78907 v 1.57813 h 0.78907 z m 0,0"
       fill-opacity="1"
       fill-rule="nonzero"
       id="path45"
       style="fill:#ffffff" />
  </g>
  <g
     clip-path="url(#0553059a20)"
     id="g51"
     style="fill:#ffffff"
     transform="translate(-106.46187,-158.8983)">
    <path
       fill="#efeceb"
       d="m 172.52734,177.21484 h 3.9375 v -5.51172 h -5.51172 v 5.51172 z m -0.78515,-4.72265 h 3.9375 v 3.9375 h -3.9375 z m 0,0"
       fill-opacity="1"
       fill-rule="nonzero"
       id="path49"
       style="fill:#ffffff" />
  </g>
  <path
     fill="#efeceb"
     d="m 67.639699,16.74232 h 0.789063 v -2.36328 h -2.363281 v 2.36328 z m 0,0"
     fill-opacity="1"
     fill-rule="nonzero"
     id="path53"
     style="fill:#ffffff" />
  <path
     fill="#efeceb"
     d="m 66.854543,20.67982 v 1.57422 h 0.785156 v 0.78906 h 0.789063 v -2.36328 z m 0,0"
     fill-opacity="1"
     fill-rule="nonzero"
     id="path55"
     style="fill:#ffffff" />
  <path
     fill="#efeceb"
     d="m 66.854543,25.40248 h -0.789062 v 2.36328 h 2.363281 v -2.36328 z m 0,0"
     fill-opacity="1"
     fill-rule="nonzero"
     id="path57"
     style="fill:#ffffff" />
  <g
     clip-path="url(#18d70cbce9)"
     id="g61"
     style="fill:#ffffff"
     transform="translate(-106.46187,-158.8983)">
    <path
       fill="#efeceb"
       d="m 174.89062,182.72656 h -3.9375 v 5.51172 h 5.51172 v -5.51172 z m 0.78907,4.72656 h -3.9375 v -3.9375 h 3.9375 z m 0,0"
       fill-opacity="1"
       fill-rule="nonzero"
       id="path59"
       style="fill:#ffffff" />
  </g>
  <path
     fill="#efeceb"
     d="m 70.002981,19.89076 h 1.574218 v 0.78906 h 0.789063 v -0.78906 h 1.574219 V 19.1056 h 0.789062 v -3.15234 h -0.789062 v 2.36328 h -0.789063 v 0.78906 h -0.785156 v -0.78906 h -0.789063 v -0.78515 h -0.785156 v 1.57421 h -3.152344 v 0.78516 h 0.789063 v 0.78906 h 0.789063 v -0.78906 z m 0,0"
     fill-opacity="1"
     fill-rule="nonzero"
     id="path63"
     style="fill:#ffffff" />
  <path
     fill="#efeceb"
     d="m 69.217825,20.67982 v 0.78516 h 0.785156 v -0.78516 z m 0,0"
     fill-opacity="1"
     fill-rule="nonzero"
     id="path65"
     style="fill:#ffffff" />
  <g
     clip-path="url(#4d7a6e8203)"
     id="g69"
     style="fill:#ffffff"
     transform="translate(-106.46187,-158.8983)">
    <path
       fill="#efeceb"
       d="m 178.03906,185.875 h -0.78515 v 2.36328 h 1.57421 v -1.57422 h -0.78906 z m 0,0"
       fill-opacity="1"
       fill-rule="nonzero"
       id="path67"
       style="fill:#ffffff" />
  </g>
  <path
     fill="#efeceb"
     d="m 72.366262,16.74232 h 0.785156 v -0.78906 h -0.785156 z m 0,0"
     fill-opacity="1"
     fill-rule="nonzero"
     id="path71"
     style="fill:#ffffff" />
  <path
     fill="#efeceb"
     d="m 73.151418,17.53139 h -0.785156 v 0.78515 h 0.785156 z m 0,0"
     fill-opacity="1"
     fill-rule="nonzero"
     id="path73"
     style="fill:#ffffff" />
  <path
     fill="#efeceb"
     d="M 73.151418,27.76576 V 26.9767 h -0.785156 v 0.78906 z m 0,0"
     fill-opacity="1"
     fill-rule="nonzero"
     id="path75"
     style="fill:#ffffff" />
  <g
     clip-path="url(#99252efac0)"
     id="g79"
     style="fill:#ffffff"
     transform="translate(-106.46187,-158.8983)">
    <path
       fill="#efeceb"
       d="m 181.19141,174.06641 v -0.78907 h -0.78907 v -0.78515 h 0.78907 v -0.78907 h -1.57813 v 0.78907 h -0.78516 v -0.78907 h -0.78906 v 1.57422 h -0.78515 v 0.78907 h 0.78515 v 0.78515 h 0.78906 v -1.57422 h 0.78516 v 1.57422 h 0.78906 v -0.78515 z m 0,0"
       fill-opacity="1"
       fill-rule="nonzero"
       id="path77"
       style="fill:#ffffff" />
  </g>
  <path
     fill="#efeceb"
     d="m 73.940481,21.46498 h 0.789062 v -0.78516 h -0.789062 z m 0,0"
     fill-opacity="1"
     fill-rule="nonzero"
     id="path81"
     style="fill:#ffffff" />
  <path
     fill="#efeceb"
     d="m 74.729543,22.25404 h -0.789062 v 0.78906 h 0.789062 z m 0,0"
     fill-opacity="1"
     fill-rule="nonzero"
     id="path83"
     style="fill:#ffffff" />
  <path
     fill="#efeceb"
     d="m 73.940481,27.76576 h 0.789062 V 26.9767 h -0.789062 z m 0,0"
     fill-opacity="1"
     fill-rule="nonzero"
     id="path85"
     style="fill:#ffffff" />
  <g
     clip-path="url(#c5649088d5)"
     id="g89"
     style="fill:#ffffff"
     transform="translate(-106.46187,-158.8983)">
    <path
       fill="#efeceb"
       d="m 180.40234,188.23828 h 0.78907 v -0.78516 h -0.78907 z m 0,0"
       fill-opacity="1"
       fill-rule="nonzero"
       id="path87"
       style="fill:#ffffff" />
  </g>
  <path
     fill="#efeceb"
     d="m 75.514699,19.89076 v 0.78906 h 0.789063 V 19.1056 h -1.574219 v 0.78516 z m 0,0"
     fill-opacity="1"
     fill-rule="nonzero"
     id="path91"
     style="fill:#ffffff" />
  <path
     fill="#efeceb"
     d="m 76.303762,21.46498 h -0.789063 v 1.57812 h 0.789063 z m 0,0"
     fill-opacity="1"
     fill-rule="nonzero"
     id="path93"
     style="fill:#ffffff" />
  <g
     clip-path="url(#bb04a9a39b)"
     id="g97"
     style="fill:#ffffff"
     transform="translate(-106.46187,-158.8983)">
    <path
       fill="#efeceb"
       d="m 181.97656,188.23828 h 0.78906 v -1.57422 h -0.78906 z m 0,0"
       fill-opacity="1"
       fill-rule="nonzero"
       id="path95"
       style="fill:#ffffff" />
  </g>
  <path
     fill="#efeceb"
     d="m 77.088918,27.76576 h 0.789063 V 26.9767 h -0.789063 z m 0,0"
     fill-opacity="1"
     fill-rule="nonzero"
     id="path99"
     style="fill:#ffffff" />
  <g
     clip-path="url(#c0ef5c6a0e)"
     id="g103"
     style="fill:#ffffff"
     transform="translate(-106.46187,-158.8983)">
    <path
       fill="#efeceb"
       d="m 183.55078,188.23828 h 0.78906 v -0.78516 h -0.78906 z m 0,0"
       fill-opacity="1"
       fill-rule="nonzero"
       id="path101"
       style="fill:#ffffff" />
  </g>
  <path
     fill="#efeceb"
     d="m 77.877981,14.37904 h -0.789063 v 2.36328 h 2.363281 v -2.36328 z m 0,0"
     fill-opacity="1"
     fill-rule="nonzero"
     id="path105"
     style="fill:#ffffff" />
  <path
     fill="#efeceb"
     d="m 78.663137,23.0431 v -0.78906 h -1.574219 v 0.78906 z m 0,0"
     fill-opacity="1"
     fill-rule="nonzero"
     id="path107"
     style="fill:#ffffff" />
  <path
     fill="#efeceb"
     d="m 77.877981,23.82826 v 0.78906 H 77.088918 V 23.0431 h -0.785156 v 0.78516 H 75.514699 V 23.0431 h -0.785156 v 1.57422 H 73.940481 V 23.0431 h -0.789063 v -1.57812 h -1.574219 v -0.78516 h -0.785156 v 0.78516 h -0.789062 v 0.78906 h -0.785156 v 0.78906 h 1.574218 v -0.78906 h 0.785156 v 0.78906 h -0.785156 v 3.14844 h 0.785156 v 0.78516 h 0.789063 v -1.57422 h -0.789063 v -1.57422 h 0.789063 v 0.78906 h 0.785156 v 1.57422 h 0.789063 v -0.78906 h 0.789062 v 0.78906 h 0.785156 v 0.78516 h 0.789063 v -0.78516 h 0.785156 v -0.78906 h 1.574219 v -1.57422 z m -1.574219,1.57422 h -0.789063 v -0.78516 h 0.789063 z m 0,0"
     fill-opacity="1"
     fill-rule="nonzero"
     id="path109"
     style="fill:#ffffff" />
  <path
     fill="#efeceb"
     d="m 78.663137,19.1056 v 0.78516 h 0.789062 V 19.1056 Z m 0,0"
     fill-opacity="1"
     fill-rule="nonzero"
     id="path111"
     style="fill:#ffffff" />
  <path
     fill="#efeceb"
     d="m 79.452199,25.40248 h -0.789062 v 1.57422 h 1.578125 v -0.78516 h -0.789063 z m 0,0"
     fill-opacity="1"
     fill-rule="nonzero"
     id="path113"
     style="fill:#ffffff" />
  <g
     clip-path="url(#4f501d04fe)"
     id="g117"
     style="fill:#ffffff"
     transform="translate(-106.46187,-158.8983)">
    <path
       fill="#efeceb"
       d="m 185.125,186.66406 v 1.57422 h 2.36328 v -0.78516 h -0.78516 v -0.78906 z m 0,0"
       fill-opacity="1"
       fill-rule="nonzero"
       id="path115"
       style="fill:#ffffff" />
  </g>
  <g
     clip-path="url(#dd796dd677)"
     id="g121"
     style="fill:#ffffff"
     transform="translate(-106.46187,-158.8983)">
    <path
       fill="#efeceb"
       d="m 185.91406,178.78906 v 0.78906 h -2.36328 v 0.78516 h 3.9375 v -1.57422 z m 0,0"
       fill-opacity="1"
       fill-rule="nonzero"
       id="path119"
       style="fill:#ffffff" />
  </g>
  <g
     clip-path="url(#003e179a7e)"
     id="g125"
     style="fill:#ffffff"
     transform="translate(-106.46187,-158.8983)">
    <path
       fill="#efeceb"
       d="m 186.70312,181.15234 h -0.78906 v 2.36328 h 0.78906 v 1.57422 h 0.78516 v -3.14843 h -0.78516 z m 0,0"
       fill-opacity="1"
       fill-rule="nonzero"
       id="path123"
       style="fill:#ffffff" />
  </g>
  <g
     clip-path="url(#6b13cc56e9)"
     id="g129"
     style="fill:#ffffff"
     transform="translate(-106.46187,-158.8983)">
    <path
       fill="#efeceb"
       d="m 186.70312,171.70312 h -4.72656 v 5.51172 h 5.51172 v -5.51172 z m 0,4.72657 h -3.9375 v -3.9375 h 3.9375 z m 0,0"
       fill-opacity="1"
       fill-rule="nonzero"
       id="path127"
       style="fill:#ffffff" />
  </g>
  <g
     clip-path="url(#6c330f9ec3)"
     id="g133"
     style="fill:#ffffff"
     transform="translate(-106.46187,-158.8983)">
    <path
       fill="#efeceb"
       d="M 187.48828,186.66406 V 185.875 h -0.78516 v 0.78906 z m 0,0"
       fill-opacity="1"
       fill-rule="nonzero"
       id="path131"
       style="fill:#ffffff" />
  </g>
  <g
     fill="#efeceb"
     fill-opacity="1"
     id="g141"
     style="fill:#ffffff"
     transform="translate(-106.46187,-158.8983)">
    <g
       transform="translate(111.97607,187.72518)"
       id="g139"
       style="fill:#ffffff">
      <g
         id="g137"
         style="fill:#ffffff">
        <path
           d="m 16.320312,-8.917969 c 0,1.355469 -0.367187,2.664063 -1.011718,3.675781 l -0.664063,-0.644531 c -0.300781,-0.273437 -0.621093,-0.433593 -1.011719,-0.433593 -0.761718,0 -1.359374,0.640624 -1.359374,1.355468 0,0.390625 0.1875,0.851563 0.554687,1.078125 l 0.574219,0.578125 c -0.898438,0.617188 -2.023438,0.894532 -3.195313,0.894532 -3.632812,0 -6.023437,-2.941407 -6.023437,-6.503907 0,-3.75 2.667968,-6.414062 6.023437,-6.414062 3.355469,0 6.113281,2.644531 6.113281,6.414062 z m -6.066406,9.171875 c 2.019532,0 3.8125,-0.4375 5.285156,-1.472656 l 1.148438,1.125 c 0.253906,0.277344 0.597656,0.394531 0.945312,0.394531 0.710938,0 1.355469,-0.601562 1.355469,-1.335937 0,-0.367188 -0.136719,-0.710938 -0.414062,-0.988282 l -1.082031,-1.078124 c 1.21875,-1.609376 1.933593,-3.632813 1.933593,-5.792969 0,-4.988281 -3.792969,-9.195313 -9.171875,-9.195313 -5.378906,0 -9.171875,4.183594 -9.171875,9.171875 0,4.988281 3.792969,9.171875 9.171875,9.171875 z m 0,0"
           id="path135"
           style="fill:#ffffff" />
      </g>
    </g>
  </g>
  <g
     fill="#efeceb"
     fill-opacity="1"
     id="g149"
     style="fill:#ffffff"
     transform="translate(-106.46187,-158.8983)">
    <g
       transform="translate(139.02778,187.72518)"
       id="g147"
       style="fill:#ffffff">
      <g
         id="g145"
         style="fill:#ffffff">
        <path
           d="m 2.296875,-16.828125 v 15.425781 c 0,0.851563 0.691406,1.539063 1.542969,1.539063 0.847656,0 1.539062,-0.6875 1.539062,-1.539063 V -7.195312 H 7.90625 l 3.472656,6.527343 c 0.253906,0.507813 0.710938,0.804688 1.308594,0.804688 0.851562,0 1.496094,-0.710938 1.496094,-1.492188 0,-0.253906 -0.07031,-0.507812 -0.183594,-0.738281 l -3.289062,-5.929688 c 1.75,-0.621093 3.21875,-2.320312 3.21875,-4.988281 0,-3.632812 -2.734376,-4.78125 -6.183594,-4.78125 H 3.242188 c -0.507813,0 -0.945313,0.4375 -0.945313,0.964844 z m 3.082031,1.769531 h 2.320313 c 2.371093,0 3.105469,0.898438 3.105469,2.460938 0,1.816406 -1.011719,2.667968 -2.667969,2.667968 H 5.378906 Z m 0,0"
           id="path143"
           style="fill:#ffffff" />
      </g>
    </g>
  </g>
  <g
     fill="#efeceb"
     fill-opacity="1"
     id="g157"
     style="fill:#ffffff"
     transform="translate(-106.46187,-158.8983)">
    <g
       transform="translate(161.18465,187.72518)"
       id="g155"
       style="fill:#ffffff">
      <g
         id="g153"
         style="fill:#ffffff">
        <path
           d="m 2.207031,2.667969 h 3.65625 c 0.574219,0 1.054688,-0.484375 1.054688,-1.035157 0,-0.574218 -0.503907,-1.011718 -1.054688,-1.011718 H 4.070312 v -16.296875 h 1.792969 c 0.574219,0 1.054688,-0.460938 1.054688,-1.058594 0,-0.574219 -0.480469,-1.058594 -1.054688,-1.058594 h -3.65625 c -0.507812,0 -0.941406,0.4375 -0.941406,0.964844 V 1.722656 c 0,0.507813 0.433594,0.945313 0.941406,0.945313 z m 0,0"
           id="path151"
           style="fill:#ffffff" />
      </g>
    </g>
  </g>
  <g
     fill="#efeceb"
     fill-opacity="1"
     id="g163">
    <g
       transform="translate(175.82691,187.72518)"
       id="g161">
      <g
         id="g159" />
    </g>
  </g>
  <g
     fill="#efeceb"
     fill-opacity="1"
     id="g171"
     style="fill:#ffffff"
     transform="translate(-106.46187,-158.8983)">
    <g
       transform="translate(189.80274,187.72518)"
       id="g169"
       style="fill:#ffffff">
      <g
         id="g167"
         style="fill:#ffffff">
        <path
           d="m 5.886719,2.667969 c 0.503906,0 0.941406,-0.4375 0.941406,-0.945313 v -18.550781 c 0,-0.527344 -0.4375,-0.964844 -0.941406,-0.964844 h -3.65625 c -0.574219,0 -1.058594,0.484375 -1.058594,1.058594 0,0.597656 0.484375,1.058594 1.058594,1.058594 H 4.023438 V 0.621094 H 2.230469 c -0.550781,0 -1.058594,0.4375 -1.058594,1.011718 0,0.550782 0.484375,1.035157 1.058594,1.035157 z m 0,0"
           id="path165"
           style="fill:#ffffff" />
      </g>
    </g>
  </g>
  <g
     fill="#efeceb"
     fill-opacity="1"
     id="g179"
     style="fill:#ffffff"
     transform="translate(-106.46187,-158.8983)">
    <g
       transform="translate(204.44501,187.72518)"
       id="g177"
       style="fill:#ffffff">
      <g
         id="g175"
         style="fill:#ffffff">
        <path
           d="m 14.320312,-5.332031 c 0,-3.769531 -3.148437,-4.460938 -5.859374,-5.148438 -2.875,-0.738281 -4.207032,-1.105469 -4.207032,-2.667969 0,-1.3125 0.941406,-2.160156 3.054688,-2.160156 1.265625,0 2.253906,0.34375 3.195312,0.964844 0.347656,0.230469 0.738282,0.34375 1.105469,0.34375 0.734375,0 1.46875,-0.597656 1.46875,-1.449219 0,-1.609375 -3.628906,-2.617187 -5.652344,-2.617187 -3.519531,0 -6.183593,1.976562 -6.183593,5.214844 0,3.449218 2.988281,4.164062 5.515624,4.851562 3.082032,0.828125 4.574219,1.265625 4.574219,3.082031 0,1.609375 -1.21875,2.503907 -3.5625,2.503907 -1.632812,0 -2.828125,-0.460938 -3.882812,-1.285157 -0.347657,-0.277343 -0.738281,-0.414062 -1.128907,-0.414062 -0.757812,0 -1.515624,0.640625 -1.515624,1.492187 0,0.300782 0.089843,0.574219 0.34375,0.78125 1.496093,1.265625 3.539062,2.117188 6.160156,2.117188 4.230468,0 6.574218,-2.371094 6.574218,-5.609375 z m 0,0"
           id="path173"
           style="fill:#ffffff" />
      </g>
    </g>
  </g>
  <g
     fill="#efeceb"
     fill-opacity="1"
     id="g187"
     style="fill:#ffffff"
     transform="translate(-106.46187,-158.8983)">
    <g
       transform="translate(225.98142,187.72518)"
       id="g185"
       style="fill:#ffffff">
      <g
         id="g183"
         style="fill:#ffffff">
        <path
           d="m 14.183594,-3.953125 c -1.035156,0.894531 -2.390625,1.46875 -3.976563,1.46875 -3.632812,0 -6.023437,-2.847656 -6.023437,-6.410156 0,-3.75 2.667968,-6.414063 6.023437,-6.414063 1.308594,0 2.527344,0.390625 3.539063,1.101563 0.414062,0.300781 0.828125,0.460937 1.265625,0.460937 0.710937,0 1.515625,-0.574218 1.515625,-1.496094 0,-0.320312 -0.113282,-0.6875 -0.390625,-0.894531 -1.5625,-1.242187 -3.632813,-1.929687 -5.929688,-1.929687 -5.378906,0 -9.125,4.160156 -9.125,9.148437 0,4.988281 3.746094,9.195313 9.125,9.195313 2.574219,0 4.828125,-0.898438 6.4375,-2.460938 0.207031,-0.207031 0.320313,-0.484375 0.320313,-0.78125 0,-0.828125 -0.734375,-1.496094 -1.5625,-1.496094 -0.414063,0 -0.851563,0.183594 -1.21875,0.507813 z m 0,0"
           id="path181"
           style="fill:#ffffff" />
      </g>
    </g>
  </g>
  <g
     fill="#efeceb"
     fill-opacity="1"
     id="g195"
     style="fill:#ffffff"
     transform="translate(-106.46187,-158.8983)">
    <g
       transform="translate(250.66614,187.72518)"
       id="g193"
       style="fill:#ffffff">
      <g
         id="g191"
         style="fill:#ffffff">
        <path
           d="m 5.539062,-7.402344 2.390626,-7.171875 2.277343,7.171875 z m 5.539063,2.734375 1.335937,3.863281 c 0.183594,0.574219 0.710938,0.941407 1.332032,0.941407 0.78125,0 1.378906,-0.640625 1.378906,-1.378907 0,-0.160156 -0.02344,-0.296874 -0.06641,-0.457031 l -4.898438,-14.621093 c -0.320312,-0.988282 -1.195312,-1.609376 -2.230468,-1.609376 -1.054688,0 -1.929688,0.621094 -2.25,1.585938 L 0.644531,-1.722656 c -0.046875,0.160156 -0.070312,0.296875 -0.070312,0.457031 0,0.738281 0.597656,1.402344 1.402343,1.402344 0.644532,0 1.125,-0.367188 1.332032,-0.964844 l 1.359375,-3.839844 z m 0,0"
           id="path189"
           style="fill:#ffffff" />
      </g>
    </g>
  </g>
  <g
     fill="#efeceb"
     fill-opacity="1"
     id="g203"
     style="fill:#ffffff"
     transform="translate(-106.46187,-158.8983)">
    <g
       transform="translate(273.09878,187.72518)"
       id="g201"
       style="fill:#ffffff">
      <g
         id="g199"
         style="fill:#ffffff">
        <path
           d="M 5.082031,-1.355469 V -14 l 7.078125,13.265625 c 0.300782,0.550781 0.828125,0.871094 1.449219,0.871094 0.917969,0 1.65625,-0.734375 1.65625,-1.652344 V -16.4375 c 0,-0.824219 -0.667969,-1.492188 -1.496094,-1.492188 -0.828125,0 -1.496093,0.667969 -1.496093,1.492188 V -6.230469 L 6.941406,-16.550781 c -0.457031,-0.875 -1.285156,-1.378907 -2.273437,-1.378907 -1.449219,0 -2.597657,1.195313 -2.597657,2.597657 v 13.976562 c 0,0.828125 0.664063,1.492188 1.492188,1.492188 0.851562,0 1.519531,-0.664063 1.519531,-1.492188 z m 0,0"
           id="path197"
           style="fill:#ffffff" />
      </g>
    </g>
  </g>
</svg>
